<svg width="320" height="220" viewBox="0 0 320 220" xmlns="http://www.w3.org/2000/svg">
  <rect width="320" height="220" rx="28" fill="#FFF7ED" />
  <path d="M78 80 L118 34 L144 92 Z" fill="#F97316" />
  <path d="M242 80 L202 34 L176 92 Z" fill="#F97316" />
  <path d="M96 42 L118 58 L130 44" fill="none" stroke="#7C2D12" stroke-width="10" stroke-linecap="round" stroke-linejoin="round" />
  <path d="M224 42 L202 58 L190 44" fill="none" stroke="#7C2D12" stroke-width="10" stroke-linecap="round" stroke-linejoin="round" />
  <ellipse cx="160" cy="124" rx="86" ry="74" fill="#FB923C" />
  <ellipse cx="160" cy="140" rx="52" ry="42" fill="#FFEDD5" />
  <circle cx="126" cy="118" r="10" fill="#111827" />
  <circle cx="194" cy="118" r="10" fill="#111827" />
  <path d="M160 134 L144 154 H176 Z" fill="#7C2D12" />
  <path d="M142 168 C152 176 168 176 178 168" fill="none" stroke="#7C2D12" stroke-width="8" stroke-linecap="round" />
  <path d="M112 88 L96 116 L124 110" fill="none" stroke="#9A3412" stroke-width="12" stroke-linecap="round" stroke-linejoin="round" />
  <path d="M208 88 L224 116 L196 110" fill="none" stroke="#9A3412" stroke-width="12" stroke-linecap="round" stroke-linejoin="round" />
  <path d="M104 142 H64" stroke="#7C2D12" stroke-width="6" stroke-linecap="round" />
  <path d="M104 154 H60" stroke="#7C2D12" stroke-width="6" stroke-linecap="round" />
  <path d="M104 166 H66" stroke="#7C2D12" stroke-width="6" stroke-linecap="round" />
  <path d="M216 142 H256" stroke="#7C2D12" stroke-width="6" stroke-linecap="round" />
  <path d="M216 154 H260" stroke="#7C2D12" stroke-width="6" stroke-linecap="round" />
  <path d="M216 166 H254" stroke="#7C2D12" stroke-width="6" stroke-linecap="round" />
</svg>
